<?xml version="1.0" encoding="UTF-8"?>
<svg xmlns="http://www.w3.org/2000/svg" xmlns:xlink="http://www.w3.org/1999/xlink" width="1766.69pt" height="2493.68pt" viewBox="0 0 1766.69 2493.68" version="1.1">
<defs>
<clipPath id="clip1">
  <path d="M 0 490 L 1766.691406 490 L 1766.691406 2493.679688 L 0 2493.679688 Z M 0 490 "/>
</clipPath>
</defs>
<g id="surface1">
<g clip-path="url(#clip1)" clip-rule="nonzero">
<path style=" stroke:none;fill-rule:nonzero;fill:rgb(25.898743%,35.699463%,66.299438%);fill-opacity:1;" d="M 882.265625 2493.679688 L 160.78125 2293.390625 L 0 490.070313 L 1766.691406 490.070313 L 1605.738281 2293.121094 L 882.265625 2493.679688 "/>
</g>
<path style=" stroke:none;fill-rule:nonzero;fill:rgb(27.49939%,40.39917%,68.998718%);fill-opacity:1;" d="M 1467.949219 2178.300781 L 1605.480469 637.511719 L 883.34375 637.511719 L 883.34375 2340.371094 L 1467.949219 2178.300781 "/>
<path style=" stroke:none;fill-rule:nonzero;fill:rgb(92.199707%,92.199707%,92.199707%);fill-opacity:1;" d="M 883.34375 1880.75 L 882.375 1881 L 636.058594 1814.488281 L 620.3125 1638.101563 L 398.289063 1638.101563 L 429.273438 1985.371094 L 882.328125 2111.140625 L 883.34375 2110.859375 Z M 328.753906 858.691406 L 348.859375 1079.859375 L 883.34375 1079.859375 L 883.34375 858.691406 Z M 368.585938 1306.339844 L 388.40625 1527.511719 L 883.34375 1527.511719 L 883.34375 1306.339844 L 368.585938 1306.339844 "/>
<path style=" stroke:none;fill-rule:nonzero;fill:rgb(0.799561%,0.799561%,0.799561%);fill-opacity:1;" d="M 1058.679688 0 L 1326.558594 0 L 1326.558594 97.410156 L 1170.710938 97.410156 L 1170.710938 116.890625 L 1326.558594 116.890625 L 1326.558594 340.941406 L 1058.679688 340.941406 L 1058.679688 238.640625 L 1214.539063 238.640625 L 1214.539063 219.160156 L 1058.691406 219.160156 L 1058.691406 0 Z M 737.230469 0 L 1005.101563 0 L 1005.101563 97.410156 L 849.253906 97.410156 L 849.253906 116.890625 L 1005.101563 116.890625 L 1005.101563 340.941406 L 737.238281 340.941406 L 737.238281 238.640625 L 893.089844 238.640625 L 893.089844 219.160156 L 737.222656 219.160156 L 737.222656 0 Z M 415.78125 0 L 683.648438 0 L 683.648438 112.019531 L 527.804688 112.019531 L 527.804688 224.039063 L 683.664063 224.039063 L 683.664063 336.058594 L 415.78125 336.058594 L 415.78125 0 "/>
<path style=" stroke:none;fill-rule:nonzero;fill:rgb(100%,100%,100%);fill-opacity:1;" d="M 1396.691406 1306.339844 L 1436.609375 858.691406 L 882.582031 858.691406 L 882.582031 1079.859375 L 1194.230469 1079.859375 L 1174.109375 1306.339844 L 882.582031 1306.339844 L 882.582031 1527.511719 L 1154.929688 1527.511719 L 1129.25 1814.359375 L 882.574219 1880.929688 L 882.574219 2111.03125 L 1335.988281 1985.371094 L 1339.308594 1948.011719 L 1391.300781 1365.730469 L 1396.691406 1306.339844 "/>
</g>
</svg>
